<svg width="17" height="18" viewBox="0 0 17 18" fill="none" xmlns="http://www.w3.org/2000/svg">
<path d="M14.876 7.59277C14.876 12.5511 8.50098 16.8011 8.50098 16.8011C8.50098 16.8011 2.12598 12.5511 2.12598 7.59277C2.12598 5.90202 2.79763 4.28051 3.99317 3.08497C5.18871 1.88942 6.81022 1.21777 8.50098 1.21777C10.1917 1.21777 11.8132 1.88942 13.0088 3.08497C14.2043 4.28051 14.876 5.90202 14.876 7.59277Z" stroke="#8E8F8F" stroke-linecap="round" stroke-linejoin="round"/>
<path d="M8.50098 9.71777C9.67458 9.71777 10.626 8.76638 10.626 7.59277C10.626 6.41917 9.67458 5.46777 8.50098 5.46777C7.32737 5.46777 6.37598 6.41917 6.37598 7.59277C6.37598 8.76638 7.32737 9.71777 8.50098 9.71777Z" stroke="#8E8F8F" stroke-linecap="round" stroke-linejoin="round"/>
</svg>
